<?xml version="1.0" encoding="UTF-8" standalone="no" ?>
<!DOCTYPE svg PUBLIC "-//W3C//DTD SVG 1.1//EN" "http://www.w3.org/Graphics/SVG/1.1/DTD/svg11.dtd">
<svg xmlns="http://www.w3.org/2000/svg" xmlns:xlink="http://www.w3.org/1999/xlink" version="1.1" width="500" height="500" viewBox="0 0 500 500" xml:space="preserve">
<desc>Created with Fabric.js 3.6.3</desc>
<defs>
</defs>
<g transform="matrix(0.4715136119297572 0 0 0.4715136119297572 250.23575680596488 257.23575680596485)"  >
<path style="stroke: none; stroke-width: 1; stroke-dasharray: none; stroke-linecap: butt; stroke-dashoffset: 0; stroke-linejoin: miter; stroke-miterlimit: 4; fill: rgb(0,0,255); fill-rule: nonzero; opacity: 1;"  transform=" translate(-636.75, -553.8500000000001)" d="M 636.9 79.2 h 4.1 l 17.6 7.6 c 11.7 5 19.4 8.4 23.2 9.9 c 3.8 1.6 16.6 6.7 38.4 15.3 c 21.8 8.6 33.1 13 33.9 13 c 0.7 0.1 6.5 2.1 17.4 6.1 c 10.9 4 19.2 7 25.1 8.9 c 5.9 1.9 14.3 4.5 25.4 7.8 c 11.1 3.3 18.1 5.4 21 6.3 c 2.9 0.9 6.6 1.9 11 3.1 c 4.4 1.2 10 2.7 16.9 4.4 c 6.9 1.7 15.7 3.8 26.3 6.3 c 10.7 2.4 21 4.6 31 6.5 c 10 1.9 16.5 3.1 19.4 3.7 c 2.9 0.5 12.2 2 27.9 4.4 c 15.7 2.4 25.5 3.9 29.5 4.4 c 4 0.5 13.7 1.8 29.2 3.9 c 15.5 2.1 30.5 4.3 30.7 4.3 c 10.4 1.7 37.7 6.2 37.8 6.3 l 0.2 0.1 c 0 0 -3.1 98.3 -5.6 139.4 c -2.5 41.1 -4.5 69.8 -6 86.1 c -1.5 16.4 -3.1 30.4 -5 42 c -1.9 11.7 -4.1 22.7 -6.6 33.1 c -2.5 10.4 -5.2 21 -8.2 31.6 s -5.5 19.9 -7.8 27.9 c -2.3 8 -5 16.6 -8.2 25.8 s -5 14.8 -5.6 16.7 c -0.6 1.9 -1.6 4.3 -2.8 7.3 c -1.3 3 -2.7 6.6 -4.4 11 c -1.7 4.3 -4.3 10.6 -7.8 18.8 c -3.6 8.2 -6.5 14.7 -8.8 19.6 c -2.3 4.9 -5.1 10.7 -8.5 17.5 c -3.3 6.8 -7.6 15 -12.9 24.5 c -5.2 9.6 -8.4 15.1 -9.4 16.7 c -1 1.6 -4.9 7.3 -11.4 17.1 c -6.6 9.8 -10.6 15.7 -11.9 17.5 c -1.4 1.8 -4.6 6.4 -9.7 13.8 c -5.1 7.4 -8.5 12.1 -10 14.1 c -1.6 2 -4 5.1 -7.2 9.4 c -3.2 4.3 -5.9 7.6 -7.8 9.9 c -2 2.3 -4.3 5.1 -6.9 8.4 c -2.6 3.2 -5.1 6.2 -7.5 8.9 s -4.3 5 -5.6 6.8 c -1.4 1.8 -3.3 4.2 -6 7 c -2.6 2.9 -5.1 5.7 -7.5 8.6 c -2.4 2.9 -5 5.8 -7.8 8.9 c -2.8 3 -5.2 5.7 -7.2 7.8 c -2 2.2 -6.2 6.3 -12.7 12.4 c -6.5 6.1 -14.1 13 -22.9 20.9 c -8.8 7.8 -16.5 14.5 -23.2 20.1 c -6.7 5.6 -11.1 9.1 -13.3 10.6 c -2.2 1.5 -7.3 5.2 -15.4 11.2 c -8 6 -13 9.7 -14.7 11 c -1.8 1.3 -6.2 4.5 -13.2 9.7 c -7 5.1 -11.6 8.4 -13.8 9.9 c -2.2 1.5 -4.7 3.2 -7.5 5.2 c -2.8 2 -6.7 4.7 -11.8 8.2 c -5 3.5 -8.8 6 -11.4 7.7 c -2.6 1.7 -5.1 3.1 -7.5 4.4 c -2.4 1.3 -6.8 3.6 -13.2 6.8 c -6.4 3.2 -10.6 5.4 -12.5 6.5 c -2 1.1 -4.2 2.3 -6.7 3.5 c -2.5 1.2 -5.1 2.6 -7.8 4.2 c -2.7 1.6 -4.7 2.7 -6 3.4 c -1.3 0.7 -4 1.9 -8.2 3.7 c -4.2 1.7 -9.2 3.7 -15.1 6 c -5.9 2.3 -9.9 3.7 -12.2 4.4 l -3.4 1 l -3.8 -0.8 c -2.5 -0.5 -5.2 -1.4 -8.2 -2.6 s -7.8 -3.3 -14.7 -6.3 c -6.9 -3 -10.9 -4.8 -11.9 -5.5 c -1 -0.7 -3.7 -2.2 -8 -4.6 c -4.3 -2.3 -7.5 -4.1 -9.7 -5.2 s -6.5 -3.3 -12.9 -6.5 c -6.4 -3.2 -10.8 -5.5 -13.2 -6.8 c -2.4 -1.3 -4.9 -2.8 -7.5 -4.4 c -2.6 -1.7 -5.6 -3.6 -8.9 -5.9 c -3.3 -2.3 -7.8 -5.3 -13.3 -9.3 c -5.5 -3.9 -10.3 -7.3 -14.4 -10.2 c -4.1 -2.9 -10 -7.2 -17.9 -13 c -7.8 -5.8 -12.9 -9.5 -15.1 -11 c -2.2 -1.5 -7 -5 -14.4 -10.4 c -7.4 -5.5 -11.6 -8.6 -12.4 -9.3 c -0.8 -0.7 -4.5 -3.8 -11.1 -9.3 s -11.2 -9.4 -13.8 -11.7 c -2.6 -2.3 -8.4 -7.6 -17.2 -15.7 c -8.9 -8.1 -14.2 -13 -16 -14.9 c -1.8 -1.8 -4.4 -4.5 -7.8 -8.1 c -3.4 -3.6 -6.2 -6.4 -8.2 -8.6 c -2 -2.2 -4 -4.4 -6 -6.8 c -2 -2.3 -4.1 -4.8 -6.3 -7.3 c -2.2 -2.5 -4.2 -4.8 -6 -6.8 c -1.8 -2 -3.3 -3.8 -4.5 -5.3 c -1.3 -1.6 -3 -3.6 -5.2 -6.1 s -4.1 -4.8 -5.6 -6.8 c -1.6 -2 -3.7 -4.6 -6.3 -7.8 c -2.6 -3.2 -4.6 -5.7 -6 -7.6 c -1.4 -1.8 -3.6 -4.7 -6.6 -8.6 c -3 -3.9 -5 -6.6 -6 -8.1 c -0.9 -1.5 -3.6 -5.2 -7.8 -11.2 c -4.3 -6 -7.1 -9.9 -8.5 -11.7 c -1.4 -1.8 -4.8 -6.8 -10.2 -15 c -5.4 -8.2 -9.5 -14.4 -12.2 -18.5 c -2.7 -4.2 -5.1 -8.1 -7.2 -11.7 c -2.1 -3.7 -5 -9.1 -8.8 -16.4 c -3.8 -7.3 -5.6 -11 -5.6 -11.2 c 0 -0.2 -1.9 -4.2 -5.6 -12 c -3.8 -7.8 -6.7 -14 -8.8 -18.5 c -2.1 -4.5 -5 -11.4 -8.8 -20.6 c -3.8 -9.2 -7.5 -19.1 -11.3 -29.5 c -3.8 -10.4 -7.9 -23.1 -12.5 -38.1 c -4.6 -15 -7.8 -26.1 -9.7 -33.4 c -1.9 -7.3 -4.5 -17.9 -7.8 -31.8 c -3.3 -13.9 -5.3 -23.1 -6 -27.4 c -0.6 -4.3 -2 -17.7 -4.1 -39.9 c -2.1 -22.3 -3.4 -39.1 -4.1 -50.4 c -0.6 -11.3 -1.4 -23.3 -2.2 -36 c -0.8 -12.7 -2 -33.5 -3.4 -62.4 c -1.5 -28.9 -2.2 -49.3 -2.2 -61.3 v -18 l 2 -0.9 c 1.4 -0.6 5.1 -1.3 11.1 -2.2 c 6.1 -0.9 14.4 -2 25.1 -3.4 c 10.7 -1.4 26.9 -3.7 48.6 -6.8 c 21.7 -3.1 37.3 -5.4 46.7 -6.8 c 9.4 -1.4 21.8 -3.6 37.3 -6.5 c 15.5 -3 28.9 -5.7 40.1 -8.4 c 11.3 -2.6 21 -5 29.2 -7.3 c 8.2 -2.3 14.5 -4 19.1 -5.2 c 4.6 -1.2 9 -2.4 13.2 -3.7 c 4.2 -1.2 12.5 -3.8 25.1 -7.8 c 12.5 -4 24.3 -8 35.3 -12.1 c 11 -4.1 16.8 -6.2 17.6 -6.3 c 0.7 -0.1 6 -2 15.8 -5.9 c 9.8 -3.8 18.7 -7.3 26.7 -10.4 c 7.9 -3.1 15.8 -6.3 23.5 -9.4 c 7.7 -3.1 17.4 -7.2 28.9 -12.3 l 17.2 -7.6 L 636.9 79.2 L 636.9 79.2 L 636.9 79.2 z" stroke-linecap="round" />
</g>
<g transform="matrix(1 0 0 1 250.25 135.6945780626827)" style=""  ><path fill="#ffffff" opacity="1" d="M-105.20-38.40L-87.72-38.40L-87.72-34.08L-119.88 33.90L-139.30 33.90L-171.45-34.08L-171.45-38.40L-153.97-38.40L-129.59 16.63L-105.20-38.40Z"/><path fill="#ffffff" opacity="1" d="M-74.67 33.90L-92.15 33.90L-92.15 29.58L-59.99-38.40L-40.57-38.40L-8.42 29.58L-8.42 33.90L-25.90 33.90L-32.15 19.87L-68.52 19.87L-74.67 33.90ZM-61.29 3.68L-39.28 3.68L-50.28-21.03L-61.29 3.68Z"/><path fill="#ffffff" opacity="1" d="M77.36 33.90L58.59 33.90L44.13 11.24Q38.30 11.24 32.91 11.13Q27.51 11.02 22.34 10.16L22.34 10.16L22.34 33.90L2.91 33.90L2.91-38.40Q12.19-39.48 22.39-40.02Q32.59-40.56 42.40-40.56L42.40-40.56L45.43-40.56Q54.49-40.56 60.42-38.67Q66.36-36.78 69.92-33.54Q73.48-30.30 74.88-25.99Q76.29-21.67 76.29-16.82L76.29-16.82L76.29-12.50Q76.29-5.70 73.59-0.15Q70.89 5.41 63.98 8.43L63.98 8.43L77.36 29.58L77.36 33.90ZM42.62-23.29L42.62-23.29Q38.84-23.29 33.29-23.08Q27.73-22.86 22.34-22.32L22.34-22.32L22.34-7.00Q27.41-6.35 31.94-6.19Q36.47-6.03 39.28-6.03L39.28-6.03Q45.75-6.03 49.31-6.62Q52.87-7.21 54.54-8.40Q56.22-9.59 56.54-11.42Q56.86-13.26 56.86-15.85L56.86-15.85Q56.86-17.25 56.65-18.60Q56.43-19.95 55.08-21.03Q53.73-22.10 50.82-22.70Q47.91-23.29 42.62-23.29Z"/><path fill="#ffffff" opacity="1" d="M105.20 33.90L87.72 33.90L87.72 29.58L119.88-38.40L139.30-38.40L171.45 29.58L171.45 33.90L153.97 33.90L147.72 19.87L111.35 19.87L105.20 33.90ZM118.58 3.68L140.59 3.68L129.59-21.03L118.58 3.68Z"/></g><g transform="matrix(0.3131688403826095 -7.67e-17 7.67e-17 0.3131688403826095 250.00000000000003 340.0838129348127)"  >
<g style=""   >
		<g transform="matrix(1 0 0 1 153.58146225744292 -34.96949324720936)"  >
<path style="stroke: none; stroke-width: 1; stroke-dasharray: none; stroke-linecap: butt; stroke-dashoffset: 0; stroke-linejoin: miter; stroke-miterlimit: 4; fill: rgb(255,255,255); fill-rule: nonzero; opacity: 1;"  transform=" translate(-503.0814622574429, -314.53050675279064)" d="M 594.2 223.7 l -0.3 -0.3 c -46.4 -46.2 -89.4 -45.5 -109.8 -25.1 l -95.3 95.3 c -15.8 15.8 -17 29.6 -13.8 46.5 c 3.7 19.5 7.3 44.2 8.3 53.9 c 1.1 10.9 0.2 19.7 -2.8 26.1 l 17 17 c 4.6 -2.2 10.5 -3.2 17.6 -3.2 c 2.7 0 5.5 0.2 8.5 0.4 c 10 1 34.5 4.7 53.9 8.3 c 16.9 3.2 30.6 2.1 46.5 -13.8 l 95.4 -95.2 C 639.6 313.2 640.5 270.1 594.2 223.7 z" stroke-linecap="round" />
</g>
		<g transform="matrix(1 0 0 1 153.69330247305294 -35.07466535405018)"  >
<path style="stroke: none; stroke-width: 1; stroke-dasharray: none; stroke-linecap: butt; stroke-dashoffset: 0; stroke-linejoin: miter; stroke-miterlimit: 4; fill: rgb(255,255,255); fill-rule: nonzero; opacity: 1;"  transform=" translate(-503.19330247305294, -314.4253346459498)" d="M 600.5 217.3 l -0.3 -0.3 C 549 166 501.1 168.9 478 191.9 c -12.4 12.4 -88 88 -95.3 95.3 c -19.2 19.2 -19.6 36.8 -16.2 54.4 c 3.6 19 7.2 43.6 8.2 53.2 c 1 9.3 0.4 20.1 -4.5 25 c -0.5 0.5 -1.1 1.1 -1.1 1.1 l 13.7 13.7 l 0.3 0.3 l 13.7 13.7 c 0 0 0.5 -0.5 1.1 -1.1 c 5 -5 15.6 -5.6 25 -4.5 c 9.6 1 34.2 4.6 53.2 8.2 c 17.6 3.3 35.1 3 54.4 -16.2 c 7.4 -7.4 82.9 -82.9 95.3 -95.3 C 648.7 316.5 651.5 268.6 600.5 217.3 z M 622.1 336.2 l -95.4 95.2 c -12.4 12.4 -23.4 16.4 -35.6 16.4 c -4.6 0 -9.3 -0.6 -14.4 -1.5 c -19.2 -3.6 -43.6 -7.3 -53.5 -8.3 c -10.8 -1.1 -19.5 -0.1 -25.1 3 l -1.3 0.7 l -21 -21 l 0.7 -1.3 c 3.1 -5.6 4.1 -14.4 3 -25.1 c -1 -9.6 -4.6 -34.1 -8.3 -53.5 c -3.4 -18.2 -2.1 -32.9 14.9 -49.9 l 95.3 -95.3 c 21.6 -21.6 66.9 -23 115.2 25.1 l 0.3 0.3 C 645 269.2 643.7 314.5 622.1 336.2 z" stroke-linecap="round" />
</g>
		<g transform="matrix(1 0 0 1 27.400000000000006 91.10000000000005)"  >
<path style="stroke: none; stroke-width: 1; stroke-dasharray: none; stroke-linecap: butt; stroke-dashoffset: 0; stroke-linejoin: miter; stroke-miterlimit: 4; fill: rgb(255,255,255); fill-rule: nonzero; opacity: 1;"  transform=" translate(-376.9, -440.6)" d="M 387.8 458.3 l -28.6 -28.6 c -0.6 -0.6 -0.6 -1.5 0 -2.1 l 4.7 -4.7 c 0.6 -0.6 1.5 -0.6 2.1 0 l 28.6 28.6 c 0.6 0.6 0.6 1.5 0 2.1 l -4.7 4.7 C 389.4 458.9 388.4 458.9 387.8 458.3 z" stroke-linecap="round" />
</g>
		<g transform="matrix(1 0 0 1 -152.4694932472092 -35.081462257442865)"  >
<path style="stroke: none; stroke-width: 1; stroke-dasharray: none; stroke-linecap: butt; stroke-dashoffset: 0; stroke-linejoin: miter; stroke-miterlimit: 4; fill: rgb(255,255,255); fill-rule: nonzero; opacity: 1;"  transform=" translate(-197.0305067527908, -314.41853774255713)" d="M 106.2 223.3 l -0.3 0.3 c -46.2 46.4 -45.5 89.4 -25.1 109.8 l 95.3 95.3 c 15.8 15.8 29.6 17 46.5 13.8 c 19.5 -3.7 44.2 -7.3 53.9 -8.3 c 10.9 -1.1 19.7 -0.2 26.1 2.8 l 17 -17 c -2.2 -4.6 -3.2 -10.5 -3.2 -17.6 c 0 -2.7 0.2 -5.5 0.4 -8.5 c 1 -10 4.7 -34.5 8.3 -53.9 c 3.2 -16.9 2.1 -30.6 -13.8 -46.5 L 216 198.1 C 195.6 177.9 152.6 177 106.2 223.3 z" stroke-linecap="round" />
</g>
		<g transform="matrix(1 0 0 1 -152.61126094643458 -35.193302473052995)"  >
<path style="stroke: none; stroke-width: 1; stroke-dasharray: none; stroke-linecap: butt; stroke-dashoffset: 0; stroke-linejoin: miter; stroke-miterlimit: 4; fill: rgb(255,255,255); fill-rule: nonzero; opacity: 1;"  transform=" translate(-196.88873905356542, -314.306697526947)" d="M 99.8 217 l -0.3 0.3 c -51.1 51.2 -48.2 99.2 -25.1 122.2 c 12.4 12.4 88 88 95.3 95.3 c 19.2 19.2 36.8 19.6 54.4 16.2 c 19 -3.6 43.6 -7.2 53.2 -8.2 c 9.3 -1 20.1 -0.4 25 4.5 c 0.5 0.5 1.1 1.1 1.1 1.1 l 13.7 -13.7 l 0.3 -0.3 l 13.7 -13.7 c 0 0 -0.5 -0.5 -1.1 -1.1 c -5 -5 -5.6 -15.6 -4.5 -25 c 1 -9.6 4.6 -34.2 8.2 -53.2 c 3.3 -17.6 3 -35.1 -16.2 -54.4 c -7.4 -7.4 -82.9 -82.9 -95.3 -95.3 C 199 168.8 151.1 166 99.8 217 z M 218.7 195.4 l 95.2 95.4 c 12.4 12.4 16.4 23.4 16.4 35.6 c 0 4.6 -0.6 9.3 -1.5 14.4 c -3.6 19.2 -7.3 43.6 -8.3 53.5 c -1.1 10.8 -0.1 19.5 3 25.1 l 0.7 1.3 l -21 21 l -1.3 -0.7 c -5.6 -3.1 -14.4 -4.1 -25.1 -3 c -9.6 1 -34.1 4.6 -53.5 8.3 c -18.2 3.4 -32.9 2.1 -49.9 -14.9 L 78 336.1 c -21.6 -21.6 -23 -66.9 25.1 -115.2 l 0.3 -0.3 C 151.7 172.5 197 173.9 218.7 195.4 z" stroke-linecap="round" />
</g>
		<g transform="matrix(1 0 0 1 25.922595466941402 143.30703137176408)"  >
<path style="stroke: none; stroke-width: 1; stroke-dasharray: none; stroke-linecap: butt; stroke-dashoffset: 0; stroke-linejoin: miter; stroke-miterlimit: 4; fill: rgb(255,255,255); fill-rule: nonzero; opacity: 1;"  transform=" translate(-375.4225954669414, -492.8070313717641)" d="M 435.6 525.5 c -2.8 9.2 -18.4 24.8 -27.6 27.6 c -2.1 0.6 -6 -1.3 -8 -2.6 c -6.6 -4.3 -14.2 -18.3 -19.7 -23.9 c -10.6 -10.6 -65.2 -66.6 -65.2 -66.6 l 27.6 -27.6 c 0 0 57.4 56.1 66.6 65.2 c 5.6 5.6 19.6 13.2 23.9 19.7 C 434.3 519.5 436.3 523.5 435.6 525.5 z" stroke-linecap="round" />
</g>
		<g transform="matrix(1 0 0 1 -26.39999999999995 91.10000000000005)"  >
<path style="stroke: none; stroke-width: 1; stroke-dasharray: none; stroke-linecap: butt; stroke-dashoffset: 0; stroke-linejoin: miter; stroke-miterlimit: 4; fill: rgb(255,255,255); fill-rule: nonzero; opacity: 1;"  transform=" translate(-323.1, -440.6)" d="M 340.8 429.7 l -28.6 28.6 c -0.6 0.6 -1.5 0.6 -2.1 0 l -4.7 -4.7 c -0.6 -0.6 -0.6 -1.5 0 -2.1 l 28.6 -28.6 c 0.6 -0.6 1.5 -0.6 2.1 0 l 4.7 4.7 C 341.4 428.1 341.4 429.1 340.8 429.7 z" stroke-linecap="round" />
</g>
		<g transform="matrix(1 0 0 1 -43.50703137176413 161.77244897959187)"  >
<path style="stroke: none; stroke-width: 1; stroke-dasharray: none; stroke-linecap: butt; stroke-dashoffset: 0; stroke-linejoin: miter; stroke-miterlimit: 4; fill: rgb(255,255,255); fill-rule: nonzero; opacity: 1;"  transform=" translate(-305.9929686282359, -511.2724489795919)" d="M 319.8 469.3 c -12.7 12.4 -24.7 24.2 -29 28.5 c -5.6 5.6 -19.6 13.2 -23.9 19.7 c -1.3 2 -3.2 5.9 -2.6 8 c 2.8 9.2 18.4 24.8 27.6 27.6 c 2.1 0.7 6.1 -1.3 8 -2.5 c 6.6 -4.3 14.2 -18.3 19.7 -23.9 c 3.8 -3.8 15.6 -15.9 28.2 -28.7 C 337.4 487.3 326.6 476.2 319.8 469.3 z" stroke-linecap="round" />
</g>
		<g transform="matrix(1 0 0 1 14.550000000000011 103.94999999999999)"  >
<path style="stroke: none; stroke-width: 1; stroke-dasharray: none; stroke-linecap: butt; stroke-dashoffset: 0; stroke-linejoin: miter; stroke-miterlimit: 4; fill: rgb(255,255,255); fill-rule: nonzero; opacity: 1;"  transform=" translate(-364.05, -453.45)" d="M 378.1 467.2 c -10.5 -10.3 -21.2 -20.8 -28.1 -27.5 l 0 0 C 356.9 446.4 367.6 456.9 378.1 467.2 L 378.1 467.2 z" stroke-linecap="round" />
</g>
		<g transform="matrix(1 0 0 1 19.00000000000003 99.29999999999993)"  >
<path style="stroke: none; stroke-width: 1; stroke-dasharray: none; stroke-linecap: butt; stroke-dashoffset: 0; stroke-linejoin: miter; stroke-miterlimit: 4; fill: rgb(255,255,255); fill-rule: nonzero; opacity: 1;"  transform=" translate(-368.5, -448.79999999999995)" d="M 380.2 465 c 3 -3 4.7 -4.8 4.7 -4.8 l -27.6 -27.6 c 0 0 -1.9 1.9 -5.2 5 C 359.1 444.3 369.8 454.8 380.2 465 z" stroke-linecap="round" />
</g>
</g>
</g>
<g transform="matrix(1 0 0 1 250.25 430.9631570687261)" style=""  ><path fill="#ffffff" opacity="1" d="M-39.88 5.11L-25.79 5.11L-25.79 10.41L-45.85 10.41L-45.85 3.49Q-45.85 1.86-45.32 0.72Q-44.79-0.43-43.94-1.17Q-43.09-1.92-42.02-2.35Q-40.94-2.78-39.86-3.00Q-38.79-3.21-37.79-3.26Q-36.80-3.31-36.07-3.34L-36.07-3.34Q-33.81-3.41-32.84-3.74Q-31.86-4.07-31.86-5.27L-31.86-5.27Q-31.86-5.56-31.97-5.88Q-32.09-6.19-32.50-6.48Q-32.92-6.76-33.75-6.94Q-34.58-7.12-36.00-7.12L-36.00-7.12Q-38.19-7.12-40.33-6.79Q-42.47-6.46-44.62-5.90L-44.62-5.90L-44.62-11.37Q-42.83-11.90-40.92-12.18Q-39.02-12.46-36.96-12.46L-36.96-12.46L-35.77-12.46Q-32.88-12.46-31.00-11.88Q-29.11-11.30-27.96-10.31Q-26.82-9.31-26.35-8.00Q-25.89-6.69-25.89-5.27L-25.89-5.27L-25.89-4.84Q-25.89-3.21-26.40-2.08Q-26.92-0.96-27.75-0.21Q-28.58 0.54-29.62 0.95Q-30.66 1.36-31.76 1.58Q-32.85 1.79-33.86 1.86Q-34.87 1.93-35.64 1.96L-35.64 1.96Q-37.96 2.03-38.92 2.36Q-39.88 2.69-39.88 3.85L-39.88 3.85L-39.88 5.11Z"/><path fill="#ffffff" opacity="1" d="M-22.54 0.17L-22.54-1.55Q-22.54-3.81-22.08-5.80Q-21.61-7.79-20.47-9.26Q-19.33-10.74-17.40-11.60Q-15.48-12.46-12.53-12.46L-12.53-12.46L-11.34-12.46Q-8.42-12.46-6.48-11.60Q-4.54-10.74-3.40-9.26Q-2.25-7.79-1.79-5.80Q-1.33-3.81-1.33-1.55L-1.33-1.55L-1.33 0.17Q-1.33 2.42-1.79 4.41Q-2.25 6.40-3.40 7.88Q-4.54 9.35-6.48 10.21Q-8.42 11.08-11.34 11.08L-11.34 11.08L-12.53 11.08Q-15.48 11.08-17.40 10.21Q-19.33 9.35-20.47 7.88Q-21.61 6.40-22.08 4.41Q-22.54 2.42-22.54 0.17L-22.54 0.17ZM-16.57-0.69L-16.57-0.69Q-16.57 0.57-16.51 1.75Q-16.44 2.92-15.99 3.82Q-15.55 4.71-14.62 5.24Q-13.69 5.77-11.93 5.77L-11.93 5.77Q-10.21 5.77-9.27 5.24Q-8.32 4.71-7.87 3.82Q-7.43 2.92-7.36 1.75Q-7.29 0.57-7.29-0.69L-7.29-0.69Q-7.29-1.95-7.36-3.11Q-7.43-4.27-7.87-5.17Q-8.32-6.06-9.27-6.59Q-10.21-7.12-11.93-7.12L-11.93-7.12Q-13.69-7.12-14.62-6.59Q-15.55-6.06-15.99-5.17Q-16.44-4.27-16.51-3.11Q-16.57-1.95-16.57-0.69Z"/><path fill="#ffffff" opacity="1" d="M7.86 5.11L21.95 5.11L21.95 10.41L1.89 10.41L1.89 3.49Q1.89 1.86 2.42 0.72Q2.95-0.43 3.80-1.17Q4.64-1.92 5.72-2.35Q6.80-2.78 7.87-3.00Q8.95-3.21 9.95-3.26Q10.94-3.31 11.67-3.34L11.67-3.34Q13.92-3.41 14.90-3.74Q15.88-4.07 15.88-5.27L15.88-5.27Q15.88-5.56 15.76-5.88Q15.65-6.19 15.23-6.48Q14.82-6.76 13.99-6.94Q13.16-7.12 11.74-7.12L11.74-7.12Q9.55-7.12 7.41-6.79Q5.27-6.46 3.12-5.90L3.12-5.90L3.12-11.37Q4.91-11.90 6.81-12.18Q8.72-12.46 10.77-12.46L10.77-12.46L11.97-12.46Q14.85-12.46 16.74-11.88Q18.63-11.30 19.77-10.31Q20.92-9.31 21.38-8.00Q21.85-6.69 21.85-5.27L21.85-5.27L21.85-4.84Q21.85-3.21 21.33-2.08Q20.82-0.96 19.99-0.21Q19.16 0.54 18.12 0.95Q17.07 1.36 15.98 1.58Q14.88 1.79 13.87 1.86Q12.86 1.93 12.10 1.96L12.10 1.96Q9.78 2.03 8.82 2.36Q7.86 2.69 7.86 3.85L7.86 3.85L7.86 5.11Z"/><path fill="#ffffff" opacity="1" d="M32.65-11.80L39.25-11.80L32.45 0.47L38.09 0.47L38.09-3.44L42.73-6.16L44.06-6.16L44.06 0.47L46.41 0.47L46.41 5.77L44.06 5.77L44.06 10.41L38.09 10.41L38.09 5.77L25.49 5.77L25.49 1.13L32.65-11.80Z"/></g><g transform="matrix(1 0 0 1 250.25 213.69595802800237)" style=""  ><path fill="#ffffff" opacity="1" d="M-157.97-7.30L-157.97-5.15Q-157.97-2.46-158.64-0.13Q-159.32 2.21-160.93 3.96Q-162.54 5.71-165.31 6.73Q-168.08 7.75-172.27 7.75L-172.27 7.75L-173.77 7.75Q-176.68 7.75-179.44 7.69Q-182.21 7.64-184.85 7.21L-184.85 7.21L-184.85 16.89L-194.52 16.89L-194.52-19.13Q-189.90-19.66-184.82-19.93Q-179.74-20.20-174.85-20.20L-174.85-20.20L-173.34-20.20Q-168.83-20.20-165.87-19.18Q-162.92-18.16-161.14-16.41Q-159.37-14.67-158.67-12.30Q-157.97-9.94-157.97-7.30L-157.97-7.30ZM-175.28-0.85L-175.28-0.85Q-172.43-0.85-170.87-1.26Q-169.31-1.66-168.59-2.38Q-167.86-3.11-167.75-4.08Q-167.65-5.04-167.65-6.23L-167.65-6.23Q-167.65-7.41-167.75-8.40Q-167.86-9.40-168.56-10.10Q-169.26-10.80-170.71-11.20Q-172.16-11.60-174.90-11.60L-174.90-11.60Q-176.62-11.60-179.39-11.49Q-182.16-11.39-184.85-11.12L-184.85-11.12L-184.85-1.34Q-182.32-1.01-180.06-0.93Q-177.81-0.85-175.28-0.85Z"/><path fill="#ffffff" opacity="1" d="M-151.41-19.13L-141.74-19.13L-141.74 16.89L-151.41 16.89L-151.41-19.13Z"/><path fill="#ffffff" opacity="1" d="M-134.75 0.28L-134.75-2.52Q-134.75-6.17-133.84-9.40Q-132.92-12.62-130.72-15.02Q-128.52-17.41-124.75-18.80Q-120.99-20.20-115.29-20.20L-115.29-20.20L-113.36-20.20Q-109.70-20.20-106.26-19.75Q-102.82-19.29-99.49-18.43L-99.49-18.43L-99.49-9.67Q-101.37-10.20-103.28-10.58Q-105.19-10.96-107.04-11.20Q-108.90-11.44-110.59-11.55Q-112.28-11.66-113.63-11.66L-113.63-11.66Q-117.82-11.66-120.10-10.88Q-122.39-10.10-123.44-8.70Q-124.49-7.30-124.67-5.37Q-124.86-3.43-124.86-1.12L-124.86-1.12Q-124.86 1.19-124.67 3.13Q-124.49 5.06-123.44 6.48Q-122.39 7.91-120.10 8.69Q-117.82 9.47-113.63 9.47L-113.63 9.47Q-112.28 9.47-110.59 9.36Q-108.90 9.25-107.04 9.01Q-105.19 8.77-103.28 8.37Q-101.37 7.96-99.49 7.43L-99.49 7.43L-99.49 16.24Q-102.82 17.05-106.26 17.50Q-109.70 17.96-113.36 17.96L-113.36 17.96L-115.29 17.96Q-120.99 17.96-124.75 16.56Q-128.52 15.17-130.72 12.77Q-132.92 10.38-133.84 7.16Q-134.75 3.93-134.75 0.28L-134.75 0.28Z"/><path fill="#ffffff" opacity="1" d="M-93.58-19.13L-83.90-19.13L-83.90-5.15L-77.72-5.15L-66.01-19.13L-56.55-19.13L-56.55-16.98L-69.82-1.12L-56.55 14.74L-56.55 16.89L-66.01 16.89L-77.29 3.45L-83.90 3.45L-83.90 16.89L-93.58 16.89L-93.58-19.13Z"/><path fill="#ffffff" opacity="1" d="M-16.18 16.89L-50.63 16.89L-50.63-19.13L-40.96-19.13L-40.96 8.29L-16.18 8.29L-16.18 16.89Z"/><path fill="#ffffff" opacity="1" d="M24.67-19.13L24.67-10.53L-0.11-10.53L-0.11-5.15L19.30-5.15L19.30 3.45L-0.11 3.45L-0.11 8.29L24.67 8.29L24.67 16.89L-9.78 16.89L-9.78-19.13L24.67-19.13Z"/><path fill="#ffffff" opacity="1" d="M31.07 16.89L31.07-19.13Q35.69-19.66 40.77-19.93Q45.85-20.20 50.74-20.20L50.74-20.20L52.24-20.20Q56.76-20.20 59.72-19.34Q62.67-18.48 64.45-17.03Q66.22-15.58 66.92-13.62Q67.62-11.66 67.62-9.45L67.62-9.45L67.62-8.38Q67.62-6.01 66.22-4.08Q64.82-2.14 61.22-1.17L61.22-1.17Q63.32-0.69 64.77 0.06Q66.22 0.81 67.08 1.78Q67.94 2.75 68.32 3.85Q68.69 4.95 68.69 6.14L68.69 6.14L68.69 7.21Q68.69 9.41 67.94 11.38Q67.19 13.34 65.31 14.79Q63.42 16.24 60.25 17.10Q57.08 17.96 52.24 17.96L52.24 17.96L50.74 17.96Q45.85 17.96 40.77 17.69Q35.69 17.42 31.07 16.89L31.07 16.89ZM50.95-11.60L50.95-11.60Q48.97-11.60 46.20-11.49Q43.43-11.39 40.74-11.12L40.74-11.12L40.74-5.15L50.31-5.15Q53.59-5.15 55.36-5.39Q57.14-5.64 57.94-6.07Q58.75-6.50 58.88-7.09Q59.02-7.68 59.02-8.38L59.02-8.38Q59.02-9.02 58.86-9.61Q58.69-10.20 57.92-10.66Q57.14-11.12 55.50-11.36Q53.86-11.60 50.95-11.60ZM50.31 3.45L40.74 3.45L40.74 8.88Q43.43 9.15 46.20 9.25Q48.97 9.36 51.12 9.36L51.12 9.36Q54.34 9.36 56.14 9.12Q57.94 8.88 58.83 8.42Q59.72 7.96 59.90 7.37Q60.09 6.78 60.09 6.14L60.09 6.14Q60.09 5.60 59.93 5.09Q59.77 4.58 58.86 4.23Q57.94 3.88 55.95 3.66Q53.96 3.45 50.31 3.45L50.31 3.45Z"/><path fill="#ffffff" opacity="1" d="M81.70 16.89L72.99 16.89L72.99 14.74L89.01-19.13L98.68-19.13L114.70 14.74L114.70 16.89L105.99 16.89L102.88 9.90L84.76 9.90L81.70 16.89ZM88.36 1.84L99.33 1.84L93.85-10.47L88.36 1.84Z"/><path fill="#ffffff" opacity="1" d="M154.80 16.89L120.35 16.89L120.35-19.13L130.02-19.13L130.02 8.29L154.80 8.29L154.80 16.89Z"/><path fill="#ffffff" opacity="1" d="M195.65 16.89L161.20 16.89L161.20-19.13L170.87-19.13L170.87 8.29L195.65 8.29L195.65 16.89Z"/></g><g transform="matrix(0.4955891700592023 0 0 0.4955891700592023 250.00000000000003 270.00000000000006)"  >
<path style="stroke: none; stroke-width: 0; stroke-dasharray: none; stroke-linecap: butt; stroke-dashoffset: 0; stroke-linejoin: miter; stroke-miterlimit: 4; fill: rgb(255,255,255); fill-rule: nonzero; opacity: 1;"  transform=" translate(-50.02821403078365, -50.007860546429136)" d="M 91.4 32.5 C 81.7 9.6 55.3 -1.1 32.4 8.6 C 9.6 18.4 -1.1 44.8 8.6 67.6 c 9.7 22.9 36.1 33.5 59 23.8 S 101.2 55.3 91.4 32.5 z M 13.1 39.4 c -1 3.6 -2.5 6.2 -3.5 6 c -1 -0.3 -1 -3.4 0 -6.9 c 1 -3.6 2.5 -6.2 3.5 -6 C 14.1 32.8 14.1 35.9 13.1 39.4 z M 22.2 49.9 c 2.8 -1.2 6.2 0.8 7.8 4.4 c 1.5 3.6 0.5 7.5 -2.2 8.6 c -2.8 1.2 -6.2 -0.8 -7.8 -4.4 C 18.4 55 19.4 51.1 22.2 49.9 z M 32.2 83.7 c -1.1 1.4 -4.4 0.8 -7.4 -1.4 c -3 -2.2 -4.5 -5.2 -3.4 -6.7 s 4.4 -0.8 7.4 1.4 C 31.8 79.3 33.3 82.3 32.2 83.7 z M 33.7 30.5 c -3.1 2.1 -7 1.7 -8.7 -0.8 c -1.7 -2.5 -0.5 -6.2 2.7 -8.3 c 3.1 -2.1 7 -1.7 8.7 0.8 C 38.1 24.8 36.9 28.5 33.7 30.5 z M 40.7 11.3 c -0.2 -1.5 2.7 -3 6.4 -3.4 s 6.8 0.5 6.9 1.9 c 0.2 1.5 -2.7 3 -6.4 3.4 S 40.8 12.8 40.7 11.3 z M 46.4 39.7 c 3.5 -1.5 7.5 0.1 8.9 3.6 c 1.5 3.5 -0.1 7.5 -3.6 8.9 c -3.5 1.5 -7.5 -0.1 -8.9 -3.6 C 41.4 45.2 43 41.2 46.4 39.7 z M 42.4 73 c -0.3 -3.2 2.6 -6.2 6.6 -6.6 s 7.5 1.9 7.8 5.1 c 0.3 3.2 -2.6 6.2 -6.6 6.6 C 46.2 78.5 42.7 76.3 42.4 73 z M 54.5 91.6 c -3.7 0.4 -6.7 0.2 -6.8 -0.5 c -0.1 -0.7 2.8 -1.5 6.5 -1.9 c 3.7 -0.4 6.7 -0.2 6.8 0.5 C 61 90.4 58.1 91.2 54.5 91.6 z M 61.3 28.8 c -3.3 -1.7 -4.9 -5.2 -3.6 -7.8 c 1.3 -2.6 5.1 -3.4 8.4 -1.8 c 3.3 1.7 4.9 5.2 3.6 7.8 C 68.4 29.6 64.6 30.4 61.3 28.8 z M 75.7 76.5 c -2.7 2.5 -6.1 3.4 -7.4 1.9 c -1.4 -1.5 -0.3 -4.7 2.5 -7.3 c 2.7 -2.5 6.1 -3.4 7.4 -1.9 C 79.6 70.8 78.5 74 75.7 76.5 z M 79.8 54.2 c -1.5 3.3 -4.9 5 -7.6 3.8 c -2.7 -1.2 -3.7 -4.9 -2.2 -8.2 s 4.9 -5 7.6 -3.8 C 80.3 47.2 81.3 50.9 79.8 54.2 z M 86.1 39.5 c -1.7 0.7 -4.2 -1.5 -5.7 -4.9 c -1.5 -3.4 -1.3 -6.8 0.4 -7.5 c 1.7 -0.7 4.2 1.5 5.7 4.9 C 87.9 35.4 87.7 38.8 86.1 39.5 z M 89.9 63.7 c -0.7 -0.1 -0.7 -3.2 -0.1 -6.8 c 0.6 -3.6 1.7 -6.5 2.4 -6.4 c 0.7 0.1 0.7 3.2 0.1 6.8 C 91.6 61 90.6 63.8 89.9 63.7 z" stroke-linecap="round" />
</g>
</svg>